<svg height="512pt" viewBox="0 -62 512 512" width="512pt" xmlns="http://www.w3.org/2000/svg"><path d="m66.800781 224.683594c-5.570312 0-10.089843 4.515625-10.089843 10.089844v88.238281c0 5.574219 4.519531 10.089843 10.089843 10.089843 5.570313 0 10.089844-4.515624 10.089844-10.089843v-88.238281c0-5.574219-4.519531-10.089844-10.089844-10.089844zm0 0"/><path d="m56.710938 60.308594v78.488281c0 5.570313 4.519531 10.089844 10.089843 10.089844 5.570313 0 10.089844-4.519531 10.089844-10.089844v-78.488281c0-5.570313-4.519531-10.089844-10.089844-10.089844-5.570312 0-10.089843 4.519531-10.089843 10.089844zm0 0"/><path d="m155.375 50.21875c-5.570312 0-10.089844 4.519531-10.089844 10.089844v262.707031c0 5.570313 4.519532 10.085937 10.089844 10.085937s10.089844-4.515624 10.089844-10.085937v-262.707031c0-5.570313-4.519532-10.089844-10.089844-10.089844zm0 0"/><path d="m252.015625 50.21875c-5.570313 0-10.085937 4.519531-10.085937 10.089844v262.707031c0 5.570313 4.515624 10.085937 10.085937 10.085937 5.574219 0 10.089844-4.515624 10.089844-10.085937v-262.707031c0-5.570313-4.515625-10.089844-10.089844-10.089844zm0 0"/><path d="m348.660156 50.21875c-5.570312 0-10.089844 4.519531-10.089844 10.089844v262.707031c0 5.570313 4.519532 10.085937 10.089844 10.085937 5.570313 0 10.089844-4.515624 10.089844-10.085937v-262.707031c0-5.570313-4.519531-10.089844-10.089844-10.089844zm0 0"/><path d="m397.589844 188.269531c-5.570313 0-10.089844 4.515625-10.089844 10.089844v124.65625c0 5.570313 4.519531 10.085937 10.089844 10.085937 5.570312 0 10.089844-4.515624 10.089844-10.085937v-124.65625c0-5.574219-4.519532-10.089844-10.089844-10.089844zm0 0"/><path d="m300.441406 252.644531c-5.570312 0-10.089844 4.515625-10.089844 10.085938v60.28125c0 5.574219 4.519532 10.089843 10.089844 10.089843 5.570313 0 10.089844-4.515624 10.089844-10.089843v-60.28125c0-5.570313-4.519531-10.085938-10.089844-10.085938zm0 0"/><path d="m455.394531 323.015625v-262.707031c0-5.570313-4.519531-10.089844-10.089843-10.089844-5.570313 0-10.089844 4.519531-10.089844 10.089844v262.707031c0 5.570313 4.519531 10.085937 10.089844 10.085937 5.570312 0 10.089843-4.515624 10.089843-10.085937zm0 0"/><path d="m107.96875 154.464844c-5.570312 0-10.085938 4.515625-10.085938 10.085937v158.464844c0 5.570313 4.515626 10.085937 10.085938 10.085937 5.574219 0 10.089844-4.515624 10.089844-10.085937v-158.464844c0-5.570312-4.515625-10.085937-10.089844-10.085937zm0 0"/><path d="m202.773438 93.019531c-5.570313 0-10.085938 4.515625-10.085938 10.089844v219.90625c0 5.570313 4.515625 10.085937 10.085938 10.085937 5.570312 0 10.089843-4.515624 10.089843-10.085937v-219.90625c0-5.574219-4.515625-10.089844-10.089843-10.089844zm0 0"/><path d="m309.328125 207.070312c-2.511719-4.972656-8.574219-6.972656-13.554687-4.460937-4.972657 2.511719-6.96875 8.578125-4.460938 13.554687l.238281.472657c1.777344 3.515625 5.328125 5.542969 9.015625 5.542969 1.53125 0 3.082032-.347657 4.539063-1.082032 4.976562-2.511718 6.972656-8.578125 4.460937-13.554687zm0 0"/><path d="m75.734375 181.972656c-2.507813-4.972656-8.574219-6.972656-13.550781-4.460937-4.976563 2.511719-6.972656 8.578125-4.464844 13.550781l.238281.476562c1.777344 3.515626 5.328125 5.542969 9.015625 5.542969 1.53125 0 3.082032-.347656 4.539063-1.085937 4.976562-2.507813 6.972656-8.574219 4.460937-13.550782zm0 0"/><path d="m10.089844 72.417969c5.570312 0 10.085937-4.515625 10.085937-10.089844v-42.148437h42.152344c5.570313 0 10.085937-4.519532 10.085937-10.089844 0-5.570313-4.515624-10.089844-10.085937-10.089844h-52.238281c-5.570313 0-10.089844 4.519531-10.089844 10.089844v52.238281c0 5.574219 4.519531 10.089844 10.089844 10.089844zm0 0"/><path d="m501.910156 0h-52.238281c-5.570313 0-10.089844 4.515625-10.089844 10.089844 0 5.570312 4.519531 10.085937 10.089844 10.085937h42.152344v42.152344c0 5.570313 4.515625 10.089844 10.085937 10.089844 5.570313 0 10.089844-4.519531 10.089844-10.089844v-52.238281c0-5.574219-4.515625-10.089844-10.089844-10.089844zm0 0"/><path d="m501.910156 315.359375c-5.570312 0-10.085937 4.515625-10.085937 10.085937v42.152344h-42.152344c-5.570313 0-10.089844 4.515625-10.089844 10.089844 0 5.570312 4.519531 10.085938 10.089844 10.085938h52.238281c5.570313 0 10.089844-4.515626 10.089844-10.085938v-52.242188c0-5.570312-4.515625-10.085937-10.089844-10.085937zm0 0"/><path d="m62.328125 367.597656h-42.152344v-42.148437c0-5.574219-4.515625-10.089844-10.085937-10.089844-5.570313 0-10.089844 4.515625-10.089844 10.089844v52.238281c0 5.570312 4.519531 10.089844 10.089844 10.089844h52.238281c5.570313 0 10.085937-4.519532 10.085937-10.089844 0-5.574219-4.515624-10.089844-10.085937-10.089844zm0 0"/></svg>