<?xml version="1.0" encoding="utf-8"?>
<svg xmlns="http://www.w3.org/2000/svg" viewBox="0 0 80 80" fill="#668696"><path style="line-height:normal;text-indent:0;text-align:start;text-decoration-line:none;text-decoration-style:solid;text-decoration-color:#000;text-transform:none;block-progression:tb;isolation:auto;mix-blend-mode:normal" d="M 19 9 C 16.802666 9 15 10.802666 15 13 L 15 30 C 15 32.197334 16.802666 34 19 34 L 23 34 L 23 40.414062 L 29.414062 34 L 33 34 L 33 38 C 33 40.197334 34.802666 42 37 42 L 50.585938 42 L 57 48.414062 L 57 42 L 61 42 C 63.197334 42 65 40.197334 65 38 L 65 21 C 65 18.802666 63.197334 17 61 17 L 47 17 L 47 13 C 47 10.802666 45.197334 9 43 9 L 19 9 z M 19 11 L 43 11 C 44.116666 11 45 11.883334 45 13 L 45 17 L 37 17 C 34.802666 17 33 18.802666 33 21 L 33 32 L 28.585938 32 L 25 35.585938 L 25 32 L 19 32 C 17.883334 32 17 31.116666 17 30 L 17 13 C 17 11.883334 17.883334 11 19 11 z M 37 19 L 61 19 C 62.116666 19 63 19.883334 63 21 L 63 38 C 63 39.116666 62.116666 40 61 40 L 55 40 L 55 43.585938 L 51.414062 40 L 37 40 C 35.883334 40 35 39.116666 35 38 L 35 21 C 35 19.883334 35.883334 19 37 19 z M 13 23 C 10.802666 23 9 24.802666 9 27 L 9 67 C 9 69.197334 10.802666 71 13 71 L 34 71 C 36.197334 71 38 69.197334 38 67 L 38 44 L 36 44 L 36 60 L 11 60 L 11 27 C 11 25.883334 11.883334 25 13 25 L 13 23 z M 67 23 L 67 25 C 68.116666 25 69 25.883334 69 27 L 69 60 L 44 60 L 44 44 L 42 44 L 42 67 C 42 69.197334 43.802666 71 46 71 L 67 71 C 69.197334 71 71 69.197334 71 67 L 71 27 C 71 24.802666 69.197334 23 67 23 z M 21 27 A 1 1 0 0 0 20 28 A 1 1 0 0 0 21 29 A 1 1 0 0 0 22 28 A 1 1 0 0 0 21 27 z M 25 27 A 1 1 0 0 0 24 28 A 1 1 0 0 0 25 29 A 1 1 0 0 0 26 28 A 1 1 0 0 0 25 27 z M 29 27 A 1 1 0 0 0 28 28 A 1 1 0 0 0 29 29 A 1 1 0 0 0 30 28 A 1 1 0 0 0 29 27 z M 39 35 A 1 1 0 0 0 38 36 A 1 1 0 0 0 39 37 A 1 1 0 0 0 40 36 A 1 1 0 0 0 39 35 z M 43 35 A 1 1 0 0 0 42 36 A 1 1 0 0 0 43 37 A 1 1 0 0 0 44 36 A 1 1 0 0 0 43 35 z M 47 35 A 1 1 0 0 0 46 36 A 1 1 0 0 0 47 37 A 1 1 0 0 0 48 36 A 1 1 0 0 0 47 35 z M 51 35 A 1 1 0 0 0 50 36 A 1 1 0 0 0 51 37 A 1 1 0 0 0 52 36 A 1 1 0 0 0 51 35 z M 55 35 A 1 1 0 0 0 54 36 A 1 1 0 0 0 55 37 A 1 1 0 0 0 56 36 A 1 1 0 0 0 55 35 z M 59 35 A 1 1 0 0 0 58 36 A 1 1 0 0 0 59 37 A 1 1 0 0 0 60 36 A 1 1 0 0 0 59 35 z M 11 62 L 36 62 L 36 67 C 36 68.116666 35.116666 69 34 69 L 13 69 C 11.883334 69 11 68.116666 11 67 L 11 62 z M 44 62 L 69 62 L 69 67 C 69 68.116666 68.116666 69 67 69 L 46 69 C 44.883334 69 44 68.116666 44 67 L 44 62 z M 23.5 64 A 1.5 1.5 0 0 0 22 65.5 A 1.5 1.5 0 0 0 23.5 67 A 1.5 1.5 0 0 0 25 65.5 A 1.5 1.5 0 0 0 23.5 64 z M 56.5 64 A 1.5 1.5 0 0 0 55 65.5 A 1.5 1.5 0 0 0 56.5 67 A 1.5 1.5 0 0 0 58 65.5 A 1.5 1.5 0 0 0 56.5 64 z" fill="#668696"/></svg>
