<?xml version="1.0" encoding="UTF-8"?>
<svg xmlns="http://www.w3.org/2000/svg" xmlns:xlink="http://www.w3.org/1999/xlink" viewBox="0 0 80 80" version="1.1" fill="#668696"><g id="surface1" fill="#668696"><path style=" " d="M 10 12 L 10 14 L 70 14 L 70 12 Z M 12 16 C 11.449219 16 11 16.449219 11 17 C 11 17.550781 11.449219 18 12 18 C 12.550781 18 13 17.550781 13 17 C 13 16.449219 12.550781 16 12 16 Z M 16 16 C 15.449219 16 15 16.449219 15 17 C 15 17.550781 15.449219 18 16 18 C 16.550781 18 17 17.550781 17 17 C 17 16.449219 16.550781 16 16 16 Z M 20 16 C 19.449219 16 19 16.449219 19 17 C 19 17.550781 19.449219 18 20 18 C 20.550781 18 21 17.550781 21 17 C 21 16.449219 20.550781 16 20 16 Z M 24 16 C 23.449219 16 23 16.449219 23 17 C 23 17.550781 23.449219 18 24 18 C 24.550781 18 25 17.550781 25 17 C 25 16.449219 24.550781 16 24 16 Z M 28 16 C 27.449219 16 27 16.449219 27 17 C 27 17.550781 27.449219 18 28 18 C 28.550781 18 29 17.550781 29 17 C 29 16.449219 28.550781 16 28 16 Z M 32 16 C 31.449219 16 31 16.449219 31 17 C 31 17.550781 31.449219 18 32 18 C 32.550781 18 33 17.550781 33 17 C 33 16.449219 32.550781 16 32 16 Z M 36 16 C 35.449219 16 35 16.449219 35 17 C 35 17.550781 35.449219 18 36 18 C 36.550781 18 37 17.550781 37 17 C 37 16.449219 36.550781 16 36 16 Z M 40 16 C 39.449219 16 39 16.449219 39 17 C 39 17.550781 39.449219 18 40 18 C 40.550781 18 41 17.550781 41 17 C 41 16.449219 40.550781 16 40 16 Z M 44 16 C 43.449219 16 43 16.449219 43 17 C 43 17.550781 43.449219 18 44 18 C 44.550781 18 45 17.550781 45 17 C 45 16.449219 44.550781 16 44 16 Z M 48 16 C 47.449219 16 47 16.449219 47 17 C 47 17.550781 47.449219 18 48 18 C 48.550781 18 49 17.550781 49 17 C 49 16.449219 48.550781 16 48 16 Z M 52 16 C 51.449219 16 51 16.449219 51 17 C 51 17.550781 51.449219 18 52 18 C 52.550781 18 53 17.550781 53 17 C 53 16.449219 52.550781 16 52 16 Z M 56 16 C 55.449219 16 55 16.449219 55 17 C 55 17.550781 55.449219 18 56 18 C 56.550781 18 57 17.550781 57 17 C 57 16.449219 56.550781 16 56 16 Z M 60 16 C 59.449219 16 59 16.449219 59 17 C 59 17.550781 59.449219 18 60 18 C 60.550781 18 61 17.550781 61 17 C 61 16.449219 60.550781 16 60 16 Z M 64 16 C 63.449219 16 63 16.449219 63 17 C 63 17.550781 63.449219 18 64 18 C 64.550781 18 65 17.550781 65 17 C 65 16.449219 64.550781 16 64 16 Z M 68 16 C 67.449219 16 67 16.449219 67 17 C 67 17.550781 67.449219 18 68 18 C 68.550781 18 69 17.550781 69 17 C 69 16.449219 68.550781 16 68 16 Z M 10 28 L 10 30 L 70 30 L 70 28 Z M 12 32 C 11.449219 32 11 32.449219 11 33 C 11 33.550781 11.449219 34 12 34 C 12.550781 34 13 33.550781 13 33 C 13 32.449219 12.550781 32 12 32 Z M 16 32 C 15.449219 32 15 32.449219 15 33 C 15 33.550781 15.449219 34 16 34 C 16.550781 34 17 33.550781 17 33 C 17 32.449219 16.550781 32 16 32 Z M 20 32 C 19.449219 32 19 32.449219 19 33 C 19 33.550781 19.449219 34 20 34 C 20.550781 34 21 33.550781 21 33 C 21 32.449219 20.550781 32 20 32 Z M 24 32 C 23.449219 32 23 32.449219 23 33 C 23 33.550781 23.449219 34 24 34 C 24.550781 34 25 33.550781 25 33 C 25 32.449219 24.550781 32 24 32 Z M 28 32 C 27.449219 32 27 32.449219 27 33 C 27 33.550781 27.449219 34 28 34 C 28.550781 34 29 33.550781 29 33 C 29 32.449219 28.550781 32 28 32 Z M 32 32 C 31.449219 32 31 32.449219 31 33 C 31 33.550781 31.449219 34 32 34 C 32.550781 34 33 33.550781 33 33 C 33 32.449219 32.550781 32 32 32 Z M 36 32 C 35.449219 32 35 32.449219 35 33 C 35 33.550781 35.449219 34 36 34 C 36.550781 34 37 33.550781 37 33 C 37 32.449219 36.550781 32 36 32 Z M 40 32 C 39.449219 32 39 32.449219 39 33 C 39 33.550781 39.449219 34 40 34 C 40.550781 34 41 33.550781 41 33 C 41 32.449219 40.550781 32 40 32 Z M 44 32 C 43.449219 32 43 32.449219 43 33 C 43 33.550781 43.449219 34 44 34 C 44.550781 34 45 33.550781 45 33 C 45 32.449219 44.550781 32 44 32 Z M 48 32 C 47.449219 32 47 32.449219 47 33 C 47 33.550781 47.449219 34 48 34 C 48.550781 34 49 33.550781 49 33 C 49 32.449219 48.550781 32 48 32 Z M 52 32 C 51.449219 32 51 32.449219 51 33 C 51 33.550781 51.449219 34 52 34 C 52.550781 34 53 33.550781 53 33 C 53 32.449219 52.550781 32 52 32 Z M 56 32 C 55.449219 32 55 32.449219 55 33 C 55 33.550781 55.449219 34 56 34 C 56.550781 34 57 33.550781 57 33 C 57 32.449219 56.550781 32 56 32 Z M 60 32 C 59.449219 32 59 32.449219 59 33 C 59 33.550781 59.449219 34 60 34 C 60.550781 34 61 33.550781 61 33 C 61 32.449219 60.550781 32 60 32 Z M 64 32 C 63.449219 32 63 32.449219 63 33 C 63 33.550781 63.449219 34 64 34 C 64.550781 34 65 33.550781 65 33 C 65 32.449219 64.550781 32 64 32 Z M 68 32 C 67.449219 32 67 32.449219 67 33 C 67 33.550781 67.449219 34 68 34 C 68.550781 34 69 33.550781 69 33 C 69 32.449219 68.550781 32 68 32 Z M 10 45 L 10 47 L 70 47 L 70 45 Z M 12 49 C 11.449219 49 11 49.449219 11 50 C 11 50.550781 11.449219 51 12 51 C 12.550781 51 13 50.550781 13 50 C 13 49.449219 12.550781 49 12 49 Z M 16 49 C 15.449219 49 15 49.449219 15 50 C 15 50.550781 15.449219 51 16 51 C 16.550781 51 17 50.550781 17 50 C 17 49.449219 16.550781 49 16 49 Z M 20 49 C 19.449219 49 19 49.449219 19 50 C 19 50.550781 19.449219 51 20 51 C 20.550781 51 21 50.550781 21 50 C 21 49.449219 20.550781 49 20 49 Z M 24 49 C 23.449219 49 23 49.449219 23 50 C 23 50.550781 23.449219 51 24 51 C 24.550781 51 25 50.550781 25 50 C 25 49.449219 24.550781 49 24 49 Z M 28 49 C 27.449219 49 27 49.449219 27 50 C 27 50.550781 27.449219 51 28 51 C 28.550781 51 29 50.550781 29 50 C 29 49.449219 28.550781 49 28 49 Z M 32 49 C 31.449219 49 31 49.449219 31 50 C 31 50.550781 31.449219 51 32 51 C 32.550781 51 33 50.550781 33 50 C 33 49.449219 32.550781 49 32 49 Z M 36 49 C 35.449219 49 35 49.449219 35 50 C 35 50.550781 35.449219 51 36 51 C 36.550781 51 37 50.550781 37 50 C 37 49.449219 36.550781 49 36 49 Z M 40 49 C 39.449219 49 39 49.449219 39 50 C 39 50.550781 39.449219 51 40 51 C 40.550781 51 41 50.550781 41 50 C 41 49.449219 40.550781 49 40 49 Z M 44 49 C 43.449219 49 43 49.449219 43 50 C 43 50.550781 43.449219 51 44 51 C 44.550781 51 45 50.550781 45 50 C 45 49.449219 44.550781 49 44 49 Z M 48 49 C 47.449219 49 47 49.449219 47 50 C 47 50.550781 47.449219 51 48 51 C 48.550781 51 49 50.550781 49 50 C 49 49.449219 48.550781 49 48 49 Z M 52 49 C 51.449219 49 51 49.449219 51 50 C 51 50.550781 51.449219 51 52 51 C 52.550781 51 53 50.550781 53 50 C 53 49.449219 52.550781 49 52 49 Z M 56 49 C 55.449219 49 55 49.449219 55 50 C 55 50.550781 55.449219 51 56 51 C 56.550781 51 57 50.550781 57 50 C 57 49.449219 56.550781 49 56 49 Z M 60 49 C 59.449219 49 59 49.449219 59 50 C 59 50.550781 59.449219 51 60 51 C 60.550781 51 61 50.550781 61 50 C 61 49.449219 60.550781 49 60 49 Z M 64 49 C 63.449219 49 63 49.449219 63 50 C 63 50.550781 63.449219 51 64 51 C 64.550781 51 65 50.550781 65 50 C 65 49.449219 64.550781 49 64 49 Z M 68 49 C 67.449219 49 67 49.449219 67 50 C 67 50.550781 67.449219 51 68 51 C 68.550781 51 69 50.550781 69 50 C 69 49.449219 68.550781 49 68 49 Z M 10 62 L 10 64 L 70 64 L 70 62 Z M 12 66 C 11.449219 66 11 66.449219 11 67 C 11 67.550781 11.449219 68 12 68 C 12.550781 68 13 67.550781 13 67 C 13 66.449219 12.550781 66 12 66 Z M 16 66 C 15.449219 66 15 66.449219 15 67 C 15 67.550781 15.449219 68 16 68 C 16.550781 68 17 67.550781 17 67 C 17 66.449219 16.550781 66 16 66 Z M 20 66 C 19.449219 66 19 66.449219 19 67 C 19 67.550781 19.449219 68 20 68 C 20.550781 68 21 67.550781 21 67 C 21 66.449219 20.550781 66 20 66 Z M 24 66 C 23.449219 66 23 66.449219 23 67 C 23 67.550781 23.449219 68 24 68 C 24.550781 68 25 67.550781 25 67 C 25 66.449219 24.550781 66 24 66 Z M 28 66 C 27.449219 66 27 66.449219 27 67 C 27 67.550781 27.449219 68 28 68 C 28.550781 68 29 67.550781 29 67 C 29 66.449219 28.550781 66 28 66 Z M 32 66 C 31.449219 66 31 66.449219 31 67 C 31 67.550781 31.449219 68 32 68 C 32.550781 68 33 67.550781 33 67 C 33 66.449219 32.550781 66 32 66 Z M 36 66 C 35.449219 66 35 66.449219 35 67 C 35 67.550781 35.449219 68 36 68 C 36.550781 68 37 67.550781 37 67 C 37 66.449219 36.550781 66 36 66 Z M 40 66 C 39.449219 66 39 66.449219 39 67 C 39 67.550781 39.449219 68 40 68 C 40.550781 68 41 67.550781 41 67 C 41 66.449219 40.550781 66 40 66 Z M 44 66 C 43.449219 66 43 66.449219 43 67 C 43 67.550781 43.449219 68 44 68 C 44.550781 68 45 67.550781 45 67 C 45 66.449219 44.550781 66 44 66 Z M 48 66 C 47.449219 66 47 66.449219 47 67 C 47 67.550781 47.449219 68 48 68 C 48.550781 68 49 67.550781 49 67 C 49 66.449219 48.550781 66 48 66 Z M 52 66 C 51.449219 66 51 66.449219 51 67 C 51 67.550781 51.449219 68 52 68 C 52.550781 68 53 67.550781 53 67 C 53 66.449219 52.550781 66 52 66 Z M 56 66 C 55.449219 66 55 66.449219 55 67 C 55 67.550781 55.449219 68 56 68 C 56.550781 68 57 67.550781 57 67 C 57 66.449219 56.550781 66 56 66 Z M 60 66 C 59.449219 66 59 66.449219 59 67 C 59 67.550781 59.449219 68 60 68 C 60.550781 68 61 67.550781 61 67 C 61 66.449219 60.550781 66 60 66 Z M 64 66 C 63.449219 66 63 66.449219 63 67 C 63 67.550781 63.449219 68 64 68 C 64.550781 68 65 67.550781 65 67 C 65 66.449219 64.550781 66 64 66 Z M 68 66 C 67.449219 66 67 66.449219 67 67 C 67 67.550781 67.449219 68 68 68 C 68.550781 68 69 67.550781 69 67 C 69 66.449219 68.550781 66 68 66 Z " fill="#668696"/></g></svg>
