<?xml version="1.0" encoding="utf-8"?>
<svg xmlns="http://www.w3.org/2000/svg" viewBox="0 0 30 30" fill="#668696"><path d="M 7 4 A 3 3 0 0 0 4 7 A 3 3 0 0 0 7 10 A 3 3 0 0 0 10 7 A 3 3 0 0 0 7 4 z M 15 4 A 3 3 0 0 0 12 7 A 3 3 0 0 0 15 10 A 3 3 0 0 0 18 7 A 3 3 0 0 0 15 4 z M 23 4 A 3 3 0 0 0 20 7 A 3 3 0 0 0 23 10 A 3 3 0 0 0 26 7 A 3 3 0 0 0 23 4 z M 7 12 A 3 3 0 0 0 4 15 A 3 3 0 0 0 7 18 A 3 3 0 0 0 10 15 A 3 3 0 0 0 7 12 z M 15 12 A 3 3 0 0 0 12 15 A 3 3 0 0 0 15 18 A 3 3 0 0 0 18 15 A 3 3 0 0 0 15 12 z M 23 12 A 3 3 0 0 0 20 15 A 3 3 0 0 0 23 18 A 3 3 0 0 0 26 15 A 3 3 0 0 0 23 12 z M 7 20 A 3 3 0 0 0 4 23 A 3 3 0 0 0 7 26 A 3 3 0 0 0 10 23 A 3 3 0 0 0 7 20 z M 15 20 A 3 3 0 0 0 12 23 A 3 3 0 0 0 15 26 A 3 3 0 0 0 18 23 A 3 3 0 0 0 15 20 z M 23 20 A 3 3 0 0 0 20 23 A 3 3 0 0 0 23 26 A 3 3 0 0 0 26 23 A 3 3 0 0 0 23 20 z" fill="#668696"/></svg>
